PathFileType	4	(X/Y/Z)	./resultDataOpenSim/trcMotMarkerGrf/sub06/qtm-05-02.trc
DataRate	CameraRate	NumFrames	NumMarkers	Units	OrigDataRate	OrigDataStartFrame	OrigNumFrames
250.000000	250.000000	9	24	m	250.000000	69	545
Frame#	Time	L.Toe.Tip			R.Toe.Tip			L.Ankle.Lat			R.Ankle.Lat			L.Ankle.Med			R.Ankle.Med			L.Heel			R.Heel			L.Knee.Lat			R.Knee.Lat			L.Knee.Med			R.Knee.Med			L.Thigh.Upper			R.Thigh.Upper			L.ASIS			R.ASIS			V.Sacral			L.Acromium			R.Acromium			C7			L.Elbow			R.Elbow			L.Wrist.Lat			R.Wrist.Lat
		X1	Y1	Z1	X2	Y2	Z2	X3	Y3	Z3	X4	Y4	Z4	X5	Y5	Z5	X6	Y6	Z6	X7	Y7	Z7	X8	Y8	Z8	X9	Y9	Z9	X10	Y10	Z10	X11	Y11	Z11	X12	Y12	Z12	X13	Y13	Z13	X14	Y14	Z14	X15	Y15	Z15	X16	Y16	Z16	X17	Y17	Z17	X18	Y18	Z18	X19	Y19	Z19	X20	Y20	Z20	X21	Y21	Z21	X22	Y22	Z22	X23	Y23	Z23	X24	Y24	Z24

69	0.272	-1.3467925	0.078352388	-0.064534895	-0.76389811	0.036092931	0.12532066	-1.3391939	0.20903423	-0.092551193	-0.89893467	0.060718752	0.14449614	-1.3195638	0.21125103	-0.01096591	-0.87780542	0.079235974	0.058585241	-1.3840923	0.2670142	-0.044530211	-0.95335639	0.037901652	0.081954665	-0.99496116	0.36251759	-0.11934194	-0.82344347	0.4391445	0.17616736	-0.99445619	0.34866047	0.0012323361	-0.85551571	0.42591701	0.050344471	-1.0303606	0.75467636	-0.11651877	-0.99166972	0.77942528	0.22701073	-0.9508824	0.80661397	-0.080610701	-0.91328603	0.82743603	0.16014976	-1.1196354	0.89255476	0.06544919	-0.99051776	1.2993989	-0.12786329	-0.98990867	1.2813149	0.23568471	-1.0680838	1.3312818	0.054925172	-1.0315009	0.98353205	-0.18734825	-1.0898434	0.98122233	0.29302182	-0.8713886	0.79718931	-0.21078614	-0.96648801	0.77560692	0.33504306
70	0.276	-1.3297211	0.078480274	-0.06343865	-0.7640437	0.036114138	0.12547242	-1.3248393	0.20905998	-0.091531489	-0.8991707	0.060718243	0.1446272	-1.3058837	0.21193181	-0.0099153968	-0.87790094	0.079313668	0.058769023	-1.3710094	0.26640081	-0.043669581	-0.95339874	0.037954533	0.08200869	-0.98222948	0.36476022	-0.11880487	-0.82212199	0.43893455	0.17661103	-0.98131856	0.35096608	0.0017963862	-0.85373291	0.42595131	0.050679992	-1.0240949	0.75660185	-0.11579795	-0.98583032	0.78093976	0.22785776	-0.94497178	0.80862818	-0.080178127	-0.90734902	0.82892371	0.16118499	-1.1143824	0.89425526	0.066680897	-0.98532423	1.3012138	-0.12766692	-0.9840168	1.2833361	0.23592642	-1.0624575	1.3330744	0.055185003	-1.0270773	0.98548947	-0.18654119	-1.0823959	0.98282685	0.29388408	-0.8684132	0.79818688	-0.2108941	-0.95799437	0.77794719	0.33539118
71	0.28	-1.3124477	0.078445951	-0.06249475	-0.76417271	0.036134598	0.12561269	-1.3104894	0.20882468	-0.09048809	-0.8993889	0.060717433	0.14475826	-1.2920016	0.21234403	-0.0089309413	-0.87796056	0.079391282	0.058935179	-1.3578057	0.26557344	-0.04282561	-0.95343246	0.038014692	0.082059528	-0.96960205	0.36718949	-0.1182066	-0.82096021	0.43876311	0.17697306	-0.96826352	0.35339545	0.0024806082	-0.85203167	0.4260469	0.051027645	-1.0177983	0.75861691	-0.11496786	-0.98016782	0.78244744	0.228687	-0.939076	0.81069783	-0.079757342	-0.90113427	0.83054807	0.16229662	-1.1087865	0.89596499	0.067337925	-0.98014523	1.3030961	-0.12747547	-0.9781129	1.2854109	0.23614013	-1.0568285	1.3349327	0.055432822	-1.0226518	0.98751406	-0.18567405	-1.0751509	0.98451474	0.29457792	-0.86546796	0.79926396	-0.21099519	-0.949493	0.78038482	0.33568744
72	0.284	-1.2948889	0.078289067	-0.061749502	-0.76428537	0.036155242	0.12573974	-1.2961722	0.20838906	-0.089430722	-0.89956145	0.060714501	0.14488407	-1.277827	0.2125361	-0.0080276524	-0.87799253	0.079474955	0.059075298	-1.344525	0.26448959	-0.041952986	-0.95346145	0.038079187	0.082106823	-0.95711484	0.36978372	-0.11757842	-0.8199174	0.43862664	0.17725793	-0.95539182	0.3559716	0.0033246008	-0.85034539	0.42621551	0.051358835	-1.011479	0.76070285	-0.11408921	-0.97478575	0.78391672	0.2294374	-0.93319801	0.81282108	-0.079343505	-0.89489717	0.83226404	0.16342581	-1.1027996	0.89776737	0.067771865	-0.97497001	1.3050332	-0.12728414	-0.97219644	1.2875413	0.23632176	-1.0511894	1.3368485	0.05567134	-1.0182429	0.98961609	-0.18474268	-1.0680364	0.9862776	0.29516713	-0.86255301	0.80041098	-0.21109592	-0.9410139	0.78289936	0.33593025
73	0.288	-1.2769788	0.078056367	-0.061238417	-0.76438464	0.036177683	0.12585042	-1.2818228	0.20780354	-0.088389969	-0.8996892	0.06070758	0.14500341	-1.2634354	0.2125279	-0.0071552037	-0.87801743	0.079568413	0.059194942	-1.3312	0.26311669	-0.041036099	-0.95349009	0.038145251	0.082149758	-0.94470977	0.37252925	-0.11690684	-0.81894969	0.43852128	0.17746881	-0.94260551	0.35872229	0.0042992434	-0.84868342	0.42643833	0.051622398	-1.0051889	0.76283993	-0.1133042	-0.96969979	0.78535629	0.23007405	-0.92733759	0.81499095	-0.078932239	-0.88918514	0.83398478	0.16444372	-1.0965982	0.89960899	0.068295718	-0.96979248	1.307018	-0.12709233	-0.96627526	1.289735	0.23647183	-1.0455381	1.3388109	0.055905268	-1.013889	0.99181432	-0.18378717	-1.0609818	0.98810404	0.29571584	-0.859677	0.80162925	-0.21120879	-0.9325508	0.78548531	0.3361199
74	0.292	-1.2587751	0.077776313	-0.060874379	-0.76447436	0.036201679	0.12593948	-1.2673363	0.20709228	-0.087382506	-0.89979164	0.060696037	0.14511313	-1.2489436	0.21232309	-0.006266977	-0.87805319	0.079670727	0.059306102	-1.31784	0.26143637	-0.040076577	-0.95352201	0.038211637	0.082188341	-0.9323294	0.37542681	-0.11617274	-0.81800916	0.43844256	0.17760765	-0.92987152	0.36168498	0.0053716437	-0.84709209	0.42670269	0.051807401	-0.99896938	0.7650216	-0.112718	-0.96499312	0.78677656	0.23055409	-0.92148517	0.81719319	-0.078517543	-0.8844041	0.83564243	0.16524242	-1.0903797	0.90145878	0.068981746	-0.96461301	1.3090556	-0.12690662	-0.96035489	1.2919892	0.23659611	-1.0398836	1.3408107	0.056142916	-1.0096076	0.99410269	-0.18286403	-1.0539575	0.98998614	0.29625753	-0.85685019	0.80292311	-0.21134242	-0.92408122	0.78814713	0.33625631
75	0.296	-1.2404939	0.07743445	-0.060397512	-0.76455819	0.036225128	0.12600388	-1.2526645	0.2062482	-0.086393864	-0.89988695	0.060681286	0.14520611	-1.2343949	0.21191763	-0.0053390514	-0.87810731	0.079779173	0.059415348	-1.3044351	0.25944065	-0.039073811	-0.95355974	0.03827912	0.082224387	-0.91997633	0.37847357	-0.11537736	-0.81704935	0.43838504	0.17767692	-0.91733768	0.36488414	0.0065389878	-0.8456026	0.42701115	0.051945896	-0.9928178	0.76726011	-0.11233349	-0.96058514	0.7881984	0.23091389	-0.91562295	0.81941169	-0.078095819	-0.88025067	0.8372831	0.16586531	-1.0842626	0.903359	0.069733037	-0.95943264	1.3111505	-0.12673167	-0.95444068	1.2942931	0.23669895	-1.0342353	1.34284	0.056388831	-1.0053856	0.99644841	-0.18201081	-1.0469587	0.99192591	0.29680795	-0.85406948	0.80428745	-0.21149505	-0.91560325	0.79088967	0.33633892
76	0.3	-1.2222563	0.076993424	-0.059627289	-0.76464013	0.03624612	0.1260463	-1.237825	0.2052505	-0.085409927	-0.89996919	0.060673272	0.14528018	-1.2197184	0.21131039	-0.004362564	-0.87817793	0.079890892	0.059520681	-1.2909739	0.25712776	-0.038017267	-0.95360758	0.038345144	0.082263576	-0.90767491	0.38165406	-0.11452867	-0.81604254	0.43834261	0.17768535	-0.90499913	0.36829396	0.0077558381	-0.84423647	0.42734934	0.05206821	-0.98670482	0.76956482	-0.1120744	-0.9561066	0.78965845	0.23129655	-0.90971818	0.82164085	-0.077659563	-0.87595525	0.83903273	0.16646861	-1.0782415	0.90533223	0.070474741	-0.95424657	1.3132923	-0.12656789	-0.94853671	1.2966358	0.23677834	-1.0285964	1.3448913	0.056637467	-1.0012013	0.99882456	-0.18122505	-1.0399885	0.99392603	0.29736747	-0.85130789	0.80571083	-0.21165264	-0.90716059	0.79370176	0.3363651
77	0.304	-1.203874	0.076462231	-0.058719274	-0.76472431	0.036264321	0.12607379	-1.2228474	0.20408518	-0.084431926	-0.89998851	0.060699319	0.14534533	-1.2048094	0.21051664	-0.0033586864	-0.87825922	0.080003254	0.059614859	-1.2774518	0.25449763	-0.036890324	-0.9536735	0.038396354	0.082316755	-0.89543637	0.38495152	-0.11362279	-0.81500406	0.43831128	0.17765652	-0.89262663	0.37187222	0.0089422757	-0.84304237	0.42767664	0.052180933	-0.98060187	0.77192414	-0.11184124	-0.95134559	0.79116573	0.23177405	-0.90373771	0.82388714	-0.077190446	-0.87111955	0.84094864	0.16714186	-1.0722485	0.90736174	0.071219891	-0.94904648	1.315458	-0.12641934	-0.9426406	1.2990083	0.23683145	-1.0229712	1.3469586	0.056879716	-0.99704113	1.0012232	-0.1804845	-1.0330507	0.99597842	0.29792416	-0.84851509	0.80718933	-0.21178338	-0.89880603	0.79655752	0.33633346
